Coordinates
version=1
nRows=26
nColumns=24
inDegrees=yes

Units are S.I. units (second, meters, Newtons, ...)
Angles are in degrees.

endheader
time	pelvis_tilt	pelvis_list	pelvis_rotation	pelvis_tx	pelvis_ty	pelvis_tz	hip_flexion_r	hip_adduction_r	hip_rotation_r	knee_angle_r	ankle_angle_r	subtalar_angle_r	mtp_angle_r	hip_flexion_l	hip_adduction_l	hip_rotation_l	knee_angle_l	ankle_angle_l	subtalar_angle_l	mtp_angle_l	lumbar_extension	lumbar_bending	lumbar_rotation
      0.94883333	      0.58733734	     -2.70902617	      0.09315252	     -0.16968633	      0.99128833	      0.29407941	    -11.34547521	      7.57766626	      1.09439782	     -8.82558773	     11.98484915	    -10.01535793	     -5.76076286	     23.87864822	     -1.04712636	     -2.29269910	    -10.84989139	     -0.66465208	     -3.57548606	     -1.87628431	     -1.93669334	      6.31268427	      5.78451530
      0.95300000	      0.57561171	     -2.66808212	      0.06595999	     -0.16417011	      0.99064578	      0.29374683	    -11.37066647	      7.51427901	      1.11295173	     -9.43965469	     12.26489367	     -9.94295048	     -5.76602713	     23.75512326	     -0.93833487	     -2.22614224	    -10.66341123	     -0.81161473	     -3.54443904	     -1.64398908	     -1.89636455	      6.27536634	      5.84270238
      0.95716667	      0.53882943	     -2.63438279	      0.05904090	     -0.15868267	      0.98998738	      0.29338802	    -11.31729858	      7.45726994	      1.05161789	    -10.14132933	     12.44258196	     -9.84427894	     -5.76526365	     23.68788473	     -0.82979673	     -2.13590337	    -10.60156703	     -1.03093497	     -3.57813044	     -1.14096703	     -1.84781405	      6.23842706	      5.88929066
      0.96133333	      0.52298801	     -2.57892768	      0.07201495	     -0.15308938	      0.98942213	      0.29305461	    -11.31656465	      7.39388041	      1.08445381	    -10.78840935	     12.53575157	     -9.97685655	     -5.76002818	     23.58498976	     -0.70207172	     -2.05965098	    -10.59789796	     -1.22258259	     -3.46399988	     -1.04856308	     -1.78742215	      6.15060808	      5.87341384
      0.96550000	      0.51355685	     -2.53431287	      0.07731169	     -0.14751429	      0.98890927	      0.29272267	    -11.27598365	      7.33799753	      1.10863444	    -11.52571391	     12.64596981	    -10.08001582	     -5.74804326	     23.47987757	     -0.58675286	     -1.96735579	    -10.67006772	     -1.42364062	     -3.44534599	     -0.94990819	     -1.73895324	      6.08438082	      5.87098406
      0.96966667	      0.46920085	     -2.46980788	      0.08631755	     -0.14191960	      0.98841292	      0.29236442	    -11.16621913	      7.25925722	      1.13330277	    -12.32436652	     12.76570895	    -10.13484849	     -5.72047666	     23.40425038	     -0.44258496	     -1.82171243	    -10.78970877	     -1.67062181	     -3.50888160	     -0.79755785	     -1.66596031	      6.00709576	      5.87883122
      0.97383333	      0.40425804	     -2.43103234	      0.09199024	     -0.13632495	      0.98792275	      0.29198700	    -10.97943594	      7.19850631	      1.09522968	    -13.22133742	     12.84399383	    -10.05050231	     -5.63191099	     23.33377028	     -0.31763633	     -1.60049983	    -10.92684649	     -1.93822961	     -3.73497806	     -0.43142592	     -1.53705234	      5.96701967	      5.87566836
      0.97800000	      0.44428534	     -2.36315524	      0.13258820	     -0.13066085	      0.98763054	      0.29163296	    -10.92148652	      7.12235856	      1.06738621	    -14.07892449	     12.77359383	    -10.17661425	     -5.60174754	     23.18101458	     -0.17560997	     -1.51104870	    -11.17988148	     -2.16191839	     -3.72956931	     -0.32884251	     -1.53884155	      5.84852206	      5.85454594
      0.98216667	      0.35841217	     -2.29248326	      0.14807668	     -0.12502957	      0.98723112	      0.29123678	    -10.64921437	      7.02863039	      1.03089937	    -15.09109887	     12.81209018	    -10.13318997	     -5.46305369	     23.12482412	     -0.01403645	     -1.26668854	    -11.39401841	     -2.46889701	     -4.00358484	      0.00855829	     -1.40192517	      5.78529511	      5.81688268
      0.98633333	      0.32074033	     -2.22387991	      0.19871038	     -0.11937682	      0.98691410	      0.29080844	    -10.40497932	      6.93669504	      0.91269151	    -16.13202280	     12.72768721	    -10.04009192	     -5.17539692	     23.05197780	      0.14822945	     -1.07195744	    -11.71090790	     -2.76909951	     -4.29355233	      0.57064884	     -1.31809578	      5.68256309	      5.75642833
      0.99050000	      0.28373050	     -2.14020993	      0.23320732	     -0.11367162	      0.98669016	      0.29042384	    -10.13379752	      6.83206966	      0.84339385	    -17.22502457	     12.58587490	    -10.10895602	     -4.92900114	     22.93499232	      0.31270507	     -0.89149349	    -11.97898812	     -3.02345466	     -4.42633843	      0.94996219	     -1.20747132	      5.56693975	      5.70546744
      0.99466667	      0.31107365	     -2.03715593	      0.29826404	     -0.10795973	      0.98656760	      0.28998471	     -9.89964512	      6.69450866	      0.66336791	    -18.35433844	     12.31273350	    -10.06589502	     -1.53279208	     22.78495984	      0.49874954	     -0.77449076	    -12.33713741	     -3.30121489	     -4.62947452	      4.94105027	     -1.20332132	      5.41998315	      5.66688543
      0.99883333	      0.25504195	     -1.96319308	      0.34470618	     -0.10225961	      0.98641206	      0.28957674	     -9.53636404	      6.59774298	      0.57788449	    -19.55033164	     11.97745328	    -10.16369854	     -1.46196559	     22.70338143	      0.65469084	     -0.59553619	    -12.67885872	     -3.53356321	     -4.84944359	      4.92665290	     -1.07638290	      5.31408005	      5.58009408
      1.00300000	      0.19944109	     -1.87377748	      0.40609778	     -0.09657766	      0.98628789	      0.28912668	     -9.11530652	      6.47110577	      0.40599490	    -20.84297846	     11.64198854	    -10.11783909	     -1.31727040	     22.62741928	      0.83302996	     -0.40612402	    -13.04739293	     -3.74174657	     -5.13706224	      4.92168600	     -0.95953649	      5.19406657	      5.48339911
      1.00716667	      0.17492139	     -1.75856227	      0.47338728	     -0.09088138	      0.98625371	      0.28864842	     -8.68888814	      6.30663361	      0.19427240	    -22.19258818	     11.20917438	    -10.04082635	     -1.11944623	     22.50567037	      1.03815388	     -0.22819419	    -13.40860836	     -3.91391558	     -5.39594353	      4.92540342	     -0.87818251	      5.04404757	      5.38441560
      1.01133333	      0.14178123	     -1.64363778	      0.54683824	     -0.08522027	      0.98623969	      0.28815367	     -8.20116074	      6.13061874	     -0.06183552	    -23.61779824	     10.72870232	     -9.86680061	     -0.75302017	     22.40700954	      1.24491661	     -0.05288775	    -13.80638442	     -4.06616085	     -5.73830688	      4.93611563	     -0.79625002	      4.88307582	      5.26181516
      1.01550000	      0.09475339	     -1.51758001	      0.62198034	     -0.07954401	      0.98625424	      0.28765107	     -7.66055827	      5.93431620	     -0.32769404	    -25.09485180	     10.12409277	     -9.75536811	     -0.32165414	     22.31285637	      1.45893262	      0.10818615	    -14.19606917	     -4.16342443	     -5.99890392	      4.94936115	     -0.68956368	      4.71740319	      5.14256774
      1.01966667	      0.11500977	     -1.35204041	      0.69043124	     -0.07384572	      0.98641544	      0.28713607	     -7.15928534	      5.67286606	     -0.64158515	    -26.59997374	      9.31089481	     -9.76635543	      6.97564042	     22.11314515	      1.70933801	      0.25164641	    -14.53553937	     -4.19983196	     -6.22733334	      5.08364082	     -0.66219829	      4.50187742	      5.05721524
      1.02383333	      0.08114578	     -1.20544629	      0.76636563	     -0.06821320	      0.98652704	      0.28662220	     -6.54968800	      5.43481811	     -0.93116364	    -28.18577501	      8.52823469	     -9.66390341	      7.04509672	     21.99848197	      1.93911741	      0.38668934	    -14.92780138	     -4.19078144	     -6.44475921	      5.08089046	     -0.57890122	      4.31062001	      4.91084534
      1.02800000	      0.04926006	     -1.04096646	      0.84106215	     -0.06259438	      0.98667155	      0.28610047	     -5.90007220	      5.16035147	     -1.24924520	    -29.82646642	      7.66292880	     -9.51779743	      7.19100195	     21.86734175	      2.18716069	      0.52764983	    -15.29923864	     -4.13965094	     -6.66967366	      5.07325388	     -0.49919104	      4.10012961	      4.77695045
      1.03216667	      0.04404396	     -0.84230889	      0.90640783	     -0.05698437	      0.98687928	      0.28555739	     -5.24001114	      4.82858884	     -1.58200454	    -31.52155762	      6.74606547	     -9.32641515	      7.49625465	     21.68432006	      2.47061879	      0.66849420	    -15.63606443	     -4.01604738	     -6.91956428	      5.05327323	     -0.44922052	      3.85131604	      4.61730287
      1.03633333	      0.03182296	     -0.63244725	      0.97532105	     -0.05139862	      0.98710877	      0.28501509	     -4.54111167	      4.47242171	     -1.92374084	    -33.24635424	      5.71825628	     -9.15825137	      7.95002758	     21.50550765	      2.76230805	      0.79401846	    -15.96771707	     -3.87307139	     -7.13849898	      5.01669454	     -0.39583196	      3.59107155	      4.47037228
      1.04050000	      0.07326071	     -0.41355231	      1.04471125	     -0.04581331	      0.98746416	      0.28453390	     -3.89135986	      4.11765639	     -2.21184116	    -34.95688533	      4.56805421	     -9.21554373	      8.06694766	     21.26210902	      3.04516540	      0.85813521	    -16.29254842	     -3.66480842	     -7.15192935	      5.01153686	     -0.42252086	      3.29667582	      4.39705474
      1.04466667	      0.03998055	     -0.22186358	      1.11930769	     -0.04029839	      0.98769392	      0.28397605	     -3.10777312	      3.75324341	     -2.57066796	    -36.73039401	      3.34980915	     -9.06735231	      8.32584352	     21.10256008	      3.31091469	      0.94906536	    -16.61302560	     -3.46857293	     -7.30671298	      4.98727563	     -0.34004673	      3.08742671	      4.24667439
      1.04883333	      0.05218398	      0.03966223	      1.17874565	     -0.03480437	      0.98801242	      0.28343413	     -2.35430750	      3.30258849	     -2.88964536	    -38.51216541	      2.07801003	     -9.08217599	     15.24041938	     20.86275705	      3.64978767	      1.05742530	    -16.88706533	     -3.18884340	     -7.49140611	      4.10924341	     -0.34384201	      2.75514115	      4.10185978
      1.05300000	      0.07641081	      0.28232688	      1.23545800	     -0.02932225	      0.98836197	      0.28293579	     -1.60031253	      2.87714769	     -3.17601057	    -40.29630743	      0.79880683	     -9.07660091	     15.24675193	     20.60931319	      3.94886446	      1.08743528	    -17.15525183	     -2.88645876	     -7.50836210	      4.12285503	     -0.34617579	      2.46211373	      3.98037758
